<svg width="282" height="145" viewBox="0 0 282 145" fill="none" xmlns="http://www.w3.org/2000/svg">
<path fill-rule="evenodd" clip-rule="evenodd" d="M54.64 67.4C59.57 61.62 64.53 55.85 69.43 50.04C71.35 47.76 73.01 45.31 73.72 42.33C74.24 40.16 74.13 40.03 71.87 40.48C67.69 41.33 63.69 42.78 59.75 44.37C48.6 48.89 37.5 53.52 26.34 58.02C22.36 59.63 18.29 61.03 14.24 62.45C12.84 62.94 11.65 63.75 10.37 64.45C8.42 65.52 6.44 65.98 4.46 64.5C2.46 63 1.82 60.91 2.48 58.26C2.82 56.92 3.11 55.56 3.91 54.39C4.03 54.4 4.16 54.41 4.29 54.41C4.95 55.23 5.2 54.29 5.45 54.05C7.09 52.54 8.67 50.97 10.26 49.41C15.19 44.57 20.13 39.73 25.06 34.89C25.24 34.71 25.67 34.53 25.3 34.25C25.05 34.06 24.82 34.38 24.69 34.63C23.79 35.24 22.88 35.86 21.98 36.47C21.52 36.47 21.26 36.24 21.24 35.77C26.71 30.89 32.93 27.04 38.9 22.85C46.13 17.78 52.72 11.86 60.22 7.17002C64.88 4.25002 69.68 1.70003 75.05 0.330025C77.25 -0.229975 79.58 0.480025 80.94 2.31002C83.34 5.53002 83.64 11.81 81.48 15.27C80.64 16.62 80.37 18.28 78.77 19.22C75.56 21.11 73.28 20.16 72.56 16.45C72.31 15.15 72.6 13.88 72.65 12.6C72.71 11.13 72.11 10.83 70.79 10.88C65.3 11.12 60.27 12.89 55.51 15.46C45.54 20.85 36.55 27.65 27.88 34.89C20.89 40.73 14.53 47.2 8.8 54.28C8.3 54.9 7.89 55.6 7.3 56.48C10.06 56.73 12.47 56.14 14.87 55.62C23.67 53.73 31.92 50.13 40.38 47.21C51.21 43.47 61.95 39.46 72.86 35.95C75.84 34.99 78.61 35.19 81.21 36.95C83.61 38.58 84.12 41.05 82.55 43.49C81.05 45.81 79.21 47.87 77.29 49.84C63.32 64.23 50.23 79.4 37.5 94.88C27.8 106.67 18.65 118.9 9.28 130.95C7.71 132.97 6.48 135.25 5.1 137.41C4.35 138.57 3.45 139.56 1.99 139.76C1.07 139.88 0.439999 139.77 0.439999 138.53C0.439999 137.24 0.910001 136.29 1.81 135.48C6.19 131.53 9.85 127.02 12.7 121.84C14.24 119.04 16.04 116.37 17.99 113.82C18.34 113.86 18.67 113.93 18.83 114.3C19.32 114.94 19.31 114.94 20.14 113.93C31.39 100.32 42.61 86.7 53.62 72.89C56.78 68.92 60.07 65.05 62.84 60.79C63.01 60.59 63.19 60.39 63.36 60.19C63.37 60.05 63.37 59.9 63.38 59.76C63.26 59.82 63.15 59.88 63.03 59.93C62.89 60.07 62.74 60.22 62.6 60.36C60.19 62.95 57.78 65.53 55.37 68.11C54.88 68.12 54.65 67.86 54.64 67.4ZM53.02 45.69C50.19 45.33 27.53 54.26 25.98 56.41C35.53 53.31 44.24 49.4 53.02 45.69Z" fill="white"/>
<path fill-rule="evenodd" clip-rule="evenodd" d="M228.04 90.76C228.3 91.09 228.57 91.33 229.03 91.4C233.53 92.14 237.31 94.49 241.07 96.85C242.62 97.82 243.78 99.25 244.47 101C244.92 102.13 244.76 102.99 243.59 103.61C241.55 104.69 239.48 105.2 237.2 104.44C236.22 104.11 235.85 103.6 235.87 102.53C235.94 98.36 231.5 93.74 227.18 93.4C226.39 92.56 225.33 92.35 224.26 92.17C220.15 90.42 215.82 89.61 211.42 89.05C206.01 88.37 200.6 87.8 195.15 87.61C193.44 87.55 192.47 87.99 191.79 89.79C188.82 97.65 185.11 105.2 181.76 112.91C181.23 114.12 181 115.9 178.91 115.62C178.5 115.56 178.15 115.53 177.83 115.19C176.54 113.81 176.48 110.69 177.55 109.17C181.88 103.04 185.43 96.48 187.99 89.4C188.4 88.27 188.2 87.75 186.8 87.8C182.1 87.95 177.49 88.8 172.83 89.25C169.92 89.53 168.47 88.4 167.74 85.42C167.07 82.71 167.76 81.17 170.38 80.09C174.48 78.42 177.5 75.21 181.04 72.75C186.37 69.05 191.62 65.22 196.93 61.47C198.66 60.25 199.82 58.71 200.5 56.66C202.61 50.3 205.35 44.11 206.76 37.56C208.07 31.46 209.59 25.39 210.59 19.22C211.17 15.61 211.18 15.58 214.92 13.52C215.42 14.44 214.79 15.56 215.31 16.43C215.98 16.38 216.04 15.9 216.12 15.54C216.27 14.89 216.47 14.06 217.14 14.15C217.79 14.24 217.83 15.21 217.83 15.81C217.83 17.7 217.3 19.48 216.63 21.24C212.78 31.33 209.58 41.63 206.51 51.97C206.35 52.52 206.17 53.1 206.49 53.74C208.24 53.33 209.67 52.29 211.05 51.25C217.68 46.24 224.65 41.71 231.5 37C234.34 35.05 237 32.83 239.73 30.71C241.57 29.27 243.56 28.27 245.98 28.32C247.65 28.36 247.87 28.64 247.03 30.13C246.08 31.81 244.64 33 242.95 33.9C230.3 40.64 218.48 48.73 206.44 56.47C204.99 57.4 204.08 58.57 203.48 60.19C200.62 67.89 197.33 75.43 194.65 83.22C194.09 84.86 194.56 85.23 196.01 85.36C203.01 85.98 209.92 87.26 216.87 88.21C219.48 88.57 221.96 89.55 224.6 89.71C225.7 90.23 226.8 90.72 228.04 90.76ZM198.03 62.53C196.99 63.16 196.33 63.51 195.72 63.94C191.21 67.09 186.83 70.42 182.67 74.03C180.5 75.91 178.03 77.44 176.18 79.67C174.99 81.11 175.08 81.58 176.78 82.16C180.84 83.54 185.02 84.36 189.33 84.4C190.1 84.41 190.36 84.14 190.63 83.39C191.87 79.87 193.24 76.4 194.56 72.91C195.8 69.66 197.21 66.47 198.03 62.53Z" fill="#C02334"/>
<path fill-rule="evenodd" clip-rule="evenodd" d="M98.51 9.33003C98.15 14.59 97.76 19.85 97.43 25.11C96.92 33.08 97.13 41.05 97.5 49.02C97.56 50.28 98.13 50 98.83 49.59C100.81 48.41 102.41 46.77 104.18 45.33C106.91 43.1 109.42 40.64 111.76 38.01C112.7 36.95 113.4 35.73 113.79 34.37C114.14 33.14 114.95 32.71 116.1 32.64C118.22 32.51 120.79 34.24 121.46 36.23C121.7 36.95 121.63 37.58 121.05 38.15C120.34 38.86 119.52 39.43 118.6 39.82C111.19 42.93 105.1 48.09 98.56 52.56C97.79 53.09 97.92 53.73 97.91 54.4C97.83 59.63 98.45 64.81 99.08 69.99C100.14 78.81 101.4 87.6 103.2 96.31C104.16 100.94 105.37 105.49 107.4 109.79C107.7 110.42 107.97 111.08 108.1 111.76C108.3 112.8 108.04 113.69 107.06 114.34C105.99 115.05 105.71 113.93 105.05 113.64C102.88 112.7 102.77 110.91 102.86 108.97C103.03 105.01 101.86 101.21 101.4 97.32C100.58 90.41 99.63 83.51 98.69 76.61C97.8 70.12 96.86 63.64 95.89 57.17C95.58 55.1 95.16 54.97 93.42 56.29C89.96 58.9 86.59 61.62 83.08 64.14C73.94 70.71 66.37 79 58.17 86.61C54.78 89.76 51.34 92.85 48.49 96.54C47.39 97.97 45.78 98.66 43.97 98.96C42.83 99.15 42.64 98.73 42.73 97.79C42.91 95.83 43.8 94.31 45.24 92.96C56.68 82.19 68.99 72.46 81.44 62.91C85.62 59.71 89.8 56.52 94.03 53.38C94.81 52.8 94.94 52.18 94.9 51.3C94.64 45.79 93.69 40.37 92.91 34.93C91.91 27.98 90.93 21.03 90.28 14.04C90.01 11.19 91.01 8.79003 92.18 6.40003C92.84 5.05003 93.95 4.22002 95.6 4.51002C97.17 4.79002 98.04 5.78003 98.34 7.29003C98.48 7.98003 98.57 8.67003 98.68 9.36003C98.61 9.32003 98.56 9.32003 98.51 9.33003Z" fill="white"/>
<path fill-rule="evenodd" clip-rule="evenodd" d="M147.79 60.03C147.09 60.78 146.91 61.57 146.85 62.4C146.42 68.23 145.41 73.97 143.99 79.63C143.42 81.91 142.09 83.75 140.18 85.14C137.09 87.38 133.86 86.59 132.2 83.15C130.84 80.33 130.73 77.28 130.88 74.24C131.32 65.2 134.25 56.76 137.17 48.32C139.32 42.11 141.55 35.92 144.46 30.01C144.92 29.08 144.7 28.17 144.74 27.27C144.8 25.71 145.38 24.52 146.81 23.9C148.44 23.19 150.12 23.24 151.75 23.96C152.02 24.08 152.36 24.52 152.33 24.78C152.16 26.46 153.33 27.4 154.22 28.54C155.61 30.33 154.65 32.8201 152.24 33.6201C151.36 33.9101 150.72 34.21 150.5 35.21C148.72 43.53 148.59 51.8 151.3 59.97C152.28 62.92 153.43 65.72 157.16 66.13C157.84 66.2 158.3 66.88 158.49 67.63C158.98 69.49 158.61 71.2 157.67 72.83C157.35 73.39 156.9 73.36 156.32 73.28C154.08 72.98 152.62 71.62 151.53 69.8C149.75 66.81 148.72 63.53 147.79 60.03ZM145.68 39.9401C144.49 40.4301 144.09 41.29 143.59 42.06C140.24 47.23 137.9 52.87 136.05 58.7C134.08 64.92 132.69 71.23 134.48 77.79C134.7 78.58 134.94 79.34 135.71 79.55C136.56 79.78 137.03 78.97 137.46 78.39C139.24 76 140.59 73.35 141.57 70.56C143.62 64.75 144.47 58.68 145.1 52.58C145.54 48.45 145.94 44.3201 145.68 39.9401Z" fill="white"/>
<path fill-rule="evenodd" clip-rule="evenodd" d="M171.06 62.58C168.49 67.03 166.22 71.6 165.41 76.74C165.09 78.76 164.99 80.81 164.79 82.84C164.77 83.07 164.78 83.31 164.73 83.54C163.25 89.3 162.44 88.99 157.58 88.28C157.28 88.25 156.98 88.22 156.68 88.19C156.86 87.39 156.97 86.63 156.56 85.81C156.04 84.76 156.46 83.68 156.99 82.8C159.58 78.5 159.9 73.62 160.58 68.85C161.84 60.04 162.61 51.17 163.26 42.3C163.67 36.75 163.86 31.18 164.1 25.62C164.16 24.19 164.53 22.97 165.68 22.07C166.72 21.26 167.83 20.55 169.2 21.23C170.59 21.93 171.21 23.18 171.18 24.68C171.14 26.56 170.48 28.35 169.96 30.12C166.92 40.54 165.38 51.22 164.42 62C164.18 64.7 163.9 67.4 163.84 70.15C165.39 68.54 166.14 66.54 166.97 64.6C171.61 53.74 176.15 42.83 181.65 32.36C183.98 27.92 186.53 23.61 189.3 19.43C190.3 17.92 191.14 16.33 191.97 14.72C192.93 12.86 195.66 12.22 197.79 13.3C199.45 14.14 199.88 15.88 198.81 17.99C198.29 19.02 197.67 20.05 196.9 20.91C189.65 28.9 184.58 38.32 179.32 47.62C177.46 50.91 175.66 54.24 173.84 57.56C173.4 57.49 173.24 57.18 173.19 56.78C174.45 54.36 175.72 51.94 176.97 49.52C180.8 42.07 185.02 34.81 188.1 27C188.42 26.2 188.9 25.39 188.66 24.06C187.85 25.09 187.18 25.81 186.66 26.63C180.35 36.67 175.49 47.42 171.12 58.41C170.64 59.61 169.9 60.76 170.04 62.15L170.06 62.12C169.96 62.17 169.85 62.21 169.75 62.26C169.86 62.34 169.96 62.42 170.07 62.5C170.41 62.53 170.73 62.56 171.06 62.58Z" fill="white"/>
<path fill-rule="evenodd" clip-rule="evenodd" d="M250.11 85.61C247.91 86.35 246.34 87.56 244.73 88.69C242.87 90 241.09 91.42 239.05 92.47C237.38 93.33 235.78 93.45 234.4 92.03C233.06 90.66 232.71 88.99 233.41 87.18C234.09 85.43 235.1 83.84 236.16 82.32C241.04 75.36 246.17 68.62 252.74 63.12C253.77 62.26 254.88 61.49 256.16 61.02C257.18 60.65 258.22 60.4 259.09 61.29C260.02 62.25 260.46 61.88 260.96 60.83C263.14 56.2 265.33 51.57 267.61 46.99C269.64 42.92 271.81 38.93 273.87 34.88C274.63 33.39 275.64 32.14 276.97 31.14C277.35 30.86 277.78 30.58 278.25 30.81C278.82 31.08 278.83 31.66 278.77 32.19C278.61 33.62 278 34.89 277.13 36C271.56 43.18 267.68 51.37 263.28 59.25C261.92 61.69 260.73 64.09 260.69 67.08C260.65 69.78 259.53 72.41 258.45 74.94C255.77 81.21 253.37 87.57 252.06 94.29C251.94 94.91 251.71 95.53 251.41 96.08C250.71 97.37 249.17 97.9 247.81 97.38C246.25 96.79 245.93 95.56 246.2 94.11C246.4 92.98 247.15 92.12 247.84 91.25C249.1 89.68 249.87 87.91 250.11 85.61ZM238.36 87.09C238.25 87.12 238.65 87.02 239.04 86.92C243.08 85.84 246.62 83.73 250.22 81.68C251.88 80.73 253 79.44 253.7 77.7C254.77 75.06 255.92 72.46 256.98 69.82C257.35 68.91 257.51 67.92 257.82 66.98C258.15 65.97 257.61 65.85 256.86 66.04C255.5 66.38 254.23 66.93 253.02 67.67C248.47 70.46 244.8 74.2 241.55 78.38C239.72 80.73 238.05 83.18 237.11 86.05C236.85 86.78 236.78 87.31 238.36 87.09Z" fill="white"/>
<path fill-rule="evenodd" clip-rule="evenodd" d="M116.41 70.51C117.65 68.23 118.25 65.7 119.07 63.25C122.04 54.41 125.41 45.75 130.03 37.63C130.52 36.76 131.08 35.93 131.98 35.43C132.93 34.9 133.99 34.85 134.78 35.57C135.57 36.29 135.3 37.29 134.86 38.17C134.71 38.48 134.51 38.78 134.26 39.02C128.74 44.21 125.78 50.91 123.09 57.79C121.08 62.95 119.57 68.27 118.16 73.61C117.04 77.88 117.2 82.3 117.38 86.69C117.46 88.59 117.41 90.4 115.88 91.89C114.99 92.76 114.22 93.52 112.89 93C111.51 92.45 110.5 91.56 110.27 90.01C110.03 88.45 110.36 86.95 111.03 85.59C112.39 82.82 112.8 79.88 112.59 76.89C112.12 70.16 112.77 63.4 112.01 56.69C111.74 54.28 111.54 51.92 112.41 49.59C112.72 48.77 113 47.72 113.97 47.64C115.07 47.55 115.45 48.66 115.82 49.5C116.51 51.09 116.67 52.77 116.48 54.49C115.93 59.63 115.98 64.79 116.06 69.95C116.07 70.15 116.02 70.39 116.41 70.51Z" fill="white"/>
<path fill-rule="evenodd" clip-rule="evenodd" d="M273.68 72.39C275.51 72.39 277.01 72.41 278.52 72.38C279.36 72.37 280.19 72.51 280.89 72.92C281.89 73.49 282.38 74.25 281.65 75.49C280.93 76.71 280.08 77.81 279.07 78.79C272.86 84.86 266.67 90.93 260.46 96.99C259.19 98.23 258.31 99.93 256.37 100.42C256.05 99.72 256.55 99.24 256.87 98.85C260.71 94.13 263.67 88.76 267.69 84.18C269.43 82.2 271.34 80.37 273.15 78.45C273.44 78.14 274.11 77.81 273.74 77.34C273.26 76.72 272.8 77.43 272.43 77.69C270.31 79.14 268.31 80.77 266.04 82C264.52 82.82 262.85 83.65 261.34 82.22C259.83 80.79 260.69 79.06 261.3 77.49C261.69 76.48 262.46 75.72 263.33 75.12C267.65 72.12 271.65 68.67 276.15 65.93C276.95 65.44 277.71 64.94 278.72 64.97C279.49 64.99 280.14 65.19 280.49 65.87C280.84 66.55 280.64 67.24 280.22 67.86C279.68 68.67 278.89 69.15 278.02 69.53C276.53 70.19 275.15 71.04 273.68 72.39ZM274.36 76.36C274.04 76.7 273.94 76.81 273.84 76.92C273.96 77 274.08 77.16 274.19 77.15C274.31 77.14 274.49 76.99 274.51 76.88C274.54 76.75 274.43 76.58 274.36 76.36Z" fill="white"/>
<path fill-rule="evenodd" clip-rule="evenodd" d="M228.04 90.76C226.8 90.72 225.7 90.23 224.61 89.72C225.8 86.89 225.66 83.79 226.41 80.86C227.62 76.11 227.24 71.21 227.77 66.4C227.92 65.05 228.16 63.98 229.79 63.92C229.95 63.91 230.12 63.82 230.27 63.74C232.61 62.55 233.8 63.21 234.09 65.95C234.28 67.79 233.76 69.54 233.16 71.25C231.24 76.73 229.36 82.23 228.32 87.97C228.15 88.89 228.13 89.83 228.04 90.76Z" fill="white"/>
<path fill-rule="evenodd" clip-rule="evenodd" d="M54.64 67.4C54.65 67.87 54.88 68.12 55.35 68.14C55.3 68.24 55.28 68.36 55.21 68.44C47.34 77.19 39.87 86.29 32.6 95.53C27.8 101.64 23.38 108.03 18.82 114.32C18.66 113.95 18.33 113.87 17.98 113.84C21.57 108.23 25.68 103 29.7 97.7C37.4 87.54 45.54 77.73 53.89 68.09C54.11 67.84 54.39 67.63 54.64 67.4Z" fill="white"/>
<path fill-rule="evenodd" clip-rule="evenodd" d="M142.94 116.37C140.23 122.36 136.98 128.09 134.69 134.27C133.82 136.61 132.97 138.96 132.37 141.39C131.86 143.47 130.35 145.17 129.44 144.85C128.65 144.56 128.57 141.72 129.39 140.13C132.34 134.45 135.32 128.78 138.3 123.11C139.49 120.85 140.71 118.6 141.92 116.35C142.26 116.36 142.6 116.36 142.94 116.37Z" fill="white"/>
<path fill-rule="evenodd" clip-rule="evenodd" d="M224.25 92.17C225.32 92.35 226.37 92.56 227.17 93.4C225.79 97.26 225.25 101.31 224.61 105.33C224.26 107.55 224.18 109.85 222.54 112.1C221.68 109.62 222.05 107.43 222.35 105.31C222.88 101.62 223.6 97.9501 224.2 94.2701C224.32 93.5801 224.24 92.87 224.25 92.17Z" fill="white"/>
<path fill-rule="evenodd" clip-rule="evenodd" d="M142.94 116.37C142.6 116.36 142.26 116.36 141.92 116.35C145.15 110.06 148.38 103.77 151.62 97.49C153.24 94.36 154.79 91.18 156.68 88.2C156.98 88.23 157.28 88.26 157.58 88.29C152.72 96.49 148.7 105.12 144.41 113.61C143.94 114.54 143.43 115.45 142.94 116.37Z" fill="white"/>
<path fill-rule="evenodd" clip-rule="evenodd" d="M232.71 54.42C232.71 55.96 230.53 58.43 229 58.63C227.21 58.86 226.12 57.26 226.91 55.48C227.5 54.16 228.51 53.16 229.81 52.54C231.27 51.84 232.72 52.82 232.71 54.42Z" fill="white"/>
<path fill-rule="evenodd" clip-rule="evenodd" d="M21.24 35.79C21.26 36.26 21.52 36.49 21.98 36.49C16.81 40.94 11.7 45.45 7.14 50.54C6.91 50.54 6.67 50.54 6.44 50.54C10.11 45.43 14.78 41.29 19.47 37.17C20.03 36.68 20.65 36.25 21.24 35.79Z" fill="white"/>
<path fill-rule="evenodd" clip-rule="evenodd" d="M171.06 62.58C170.73 62.56 170.41 62.53 170.08 62.51C170.1 62.47 170.15 62.42 170.15 62.38C170.14 62.29 170.1 62.21 170.07 62.13L170.05 62.16C171.5 60.61 171.87 58.42 173.2 56.79C173.24 57.19 173.41 57.5 173.85 57.57C172.92 59.24 171.99 60.91 171.06 62.58Z" fill="white"/>
<path fill-rule="evenodd" clip-rule="evenodd" d="M6.44 50.54C6.67 50.54 6.91 50.54 7.14 50.54C6.19 51.83 5.25 53.13 4.3 54.42C4.17 54.41 4.05 54.4 3.92 54.4C4.49 52.94 5.38 51.68 6.44 50.54Z" fill="white"/>
</svg>
